<svg width="898" height="156" viewBox="0 0 898 156" fill="none" xmlns="http://www.w3.org/2000/svg">
<path d="M60.1333 1.48131C28.2667 8.28131 3.73333 28.6813 0.666667 50.948L0 56.148L3.06667 52.148C11.7333 40.8146 21.3333 34.148 37.4667 28.548C63.8667 19.348 92.9333 18.6813 143.467 26.148C182.4 31.8813 194.933 33.0813 218.133 33.2146C238.267 33.348 244.133 32.8146 254.533 30.4146C272.267 26.2813 287.733 18.6813 296.933 9.48131C304.933 1.48131 305.867 -1.58536 298.533 4.01464C284.933 14.2813 267.6 18.6813 240.133 18.6813C217.867 18.6813 201.067 16.6813 167.467 10.0146C126.133 1.74798 117.333 0.681309 92.8 0.147976C75.6 -0.252022 66.4 0.147976 60.1333 1.48131Z" fill="white"/>
<path d="M100.133 92.6814V155.481H114.8H129.467V94.2814V33.0814L121.2 32.2814C116.533 31.748 110 31.0814 106.533 30.6814L100.133 29.8814V92.6814Z" fill="white"/>
<path d="M231.2 46.148C223.6 47.748 218.267 50.6814 212 56.948L206.8 62.148V54.148V46.148H192.133H177.467V100.815L177.6 155.481H192.133H206.8V128.815C206.8 97.348 208 90.548 214.4 83.348C220.133 77.0814 230.667 73.348 239.733 74.6814C242.8 75.0814 245.467 74.948 245.467 74.4147C245.467 73.748 246.667 67.6147 248.133 60.8147C249.6 53.8813 250.4 47.8813 249.867 47.348C248 45.748 236.933 45.0813 231.2 46.148Z" fill="white"/>
<path d="M284.8 47.4813C278.133 48.8146 265.467 53.6146 262.267 55.8813C259.867 57.6146 259.733 57.2146 267.2 74.4146C269.067 78.8146 268.933 78.8146 276.667 75.348C284.8 71.8813 299.467 70.548 307.467 72.8146C314.4 74.8146 321.467 81.748 321.467 86.8146V89.8813L298.533 90.4146C278 90.8146 274.933 91.0813 270.133 93.748C253.467 102.681 247.467 120.548 255.867 136.948C262.4 149.881 274.267 156.281 291.467 155.881C302.4 155.748 310.4 153.081 317.467 147.481C320.267 145.348 322.933 143.481 323.333 143.481C323.733 143.481 324.133 146.148 324.133 149.481V155.481H337.6H350.933L350.533 117.748C350.133 80.4146 350.133 80.148 346.667 72.6813C342.533 64.0146 335.2 56.4146 326.667 52.0146C316.4 46.948 297.867 44.948 284.8 47.4813ZM321.067 115.615C319.733 125.348 309.467 132.815 297.467 132.815C285.467 132.815 278.267 126.015 281.333 117.615C283.6 112.015 289.333 110.281 306.667 110.148H321.867L321.067 115.615Z" fill="white"/>
<path d="M355.2 47.748C355.467 48.6814 363.2 67.748 372.267 90.148C381.2 112.548 390.8 136.148 393.467 142.815L398.267 154.815L413.6 155.215L428.8 155.481L443.733 117.881C452 97.0814 461.333 73.8813 464.533 66.148C467.733 58.4147 470.8 50.6814 471.333 49.0813L472.4 46.0147L457.333 46.4147L442.4 46.8147L436.533 62.8147C420.667 105.215 414.533 121.481 413.867 122.548C413.067 123.748 397.6 83.348 389.6 59.0814L385.2 46.148H369.867C358.133 46.148 354.667 46.548 355.2 47.748Z" fill="white"/>
<path d="M588.133 100.815V155.615L602.533 155.215L616.8 154.815L617.467 123.481C618.133 90.148 618.533 88.4146 625.6 80.948C634.933 70.948 655.467 72.148 664.133 83.0813C670.267 90.948 670.8 94.148 670.8 125.615V155.481H684.933H699.067L698.4 120.415C697.867 83.4813 697.733 82.4146 690.533 69.4813C684.267 58.148 667.733 47.748 653.733 46.548C640.933 45.348 623.6 51.348 618.533 58.6813C617.867 59.6146 617.467 59.6146 617.333 58.8147C617.2 58.0146 616.933 56.8147 616.8 56.148C616.533 55.348 616.4 52.8147 616.267 50.4146L616.133 46.148H602.133H588.133V100.815Z" fill="white"/>
<path d="M751.867 47.6147C716.667 52.8147 695.467 93.2147 711.467 124.948C725.6 152.815 759.6 163.348 788 148.815C796.267 144.681 806.8 133.615 811.467 124.148C815.067 116.815 815.467 114.948 815.467 102.148C815.467 88.948 815.2 87.6147 810.933 78.948C799.6 55.6147 777.333 43.8813 751.867 47.6147ZM771.867 76.148C778.4 78.948 782.667 83.0813 785.6 89.4813C790.8 100.548 787.467 115.748 778.533 122.548C760.267 136.548 733.467 123.481 733.467 100.548C733.467 90.4147 741.067 79.4813 750.8 75.6147C755.867 73.6147 766.267 73.8813 771.867 76.148Z" fill="white"/>
<path d="M824.133 92.6814C824.133 118.148 824.533 142.815 824.933 147.348L825.867 155.481H839.6H853.2L853.733 125.081C854.133 96.948 854.4 94.4147 857.067 88.8147C862.133 78.8147 873.467 73.0814 885.6 74.6814L891.733 75.4813L894.667 62.148C896.133 54.6814 897.467 48.0147 897.467 47.2147C897.467 46.2813 893.467 46.0147 885.2 46.4147C871.333 47.0813 866.4 48.948 858.533 56.548L853.467 61.348V53.748V46.148H838.8H824.133V92.6814Z" fill="white"/>
<path d="M511.467 48.6814C503.733 50.6814 493.067 57.0814 486.533 63.6147C466 84.148 466.267 119.481 487.2 139.881C498 150.415 510.533 155.481 526.133 155.481C538 155.481 547.733 152.815 556.267 147.481C562.667 143.348 571.467 134.015 572.4 130.415C572.667 129.348 568.667 127.348 560.8 124.815C546.667 120.148 545.733 120.015 542.267 123.348C535.6 129.215 523.467 130.415 514 126.015C508.267 123.215 501.467 116.281 501.467 113.081C501.467 111.881 512 111.481 540.8 111.481H580.133V103.081C580.133 80.8147 568.133 61.4813 548.4 51.8813C542 48.8147 538.933 48.148 528.133 47.8813C521.2 47.748 513.733 48.148 511.467 48.6814ZM535.067 75.748C540 77.2147 550.8 87.0814 550.8 90.148C550.8 90.948 542 91.4814 526.133 91.4814C509.2 91.4814 501.467 91.0814 501.467 90.0147C501.467 86.8147 507.333 80.548 513.2 77.4813C520.133 73.8813 527.2 73.348 535.067 75.748Z" fill="white"/>
</svg>
